<?xml version="1.0" encoding="UTF-8"?>
<!DOCTYPE svg PUBLIC "-//W3C//DTD SVG 1.1//EN" "http://www.w3.org/Graphics/SVG/1.1/DTD/svg11.dtd">
<!-- Creator: CorelDRAW 2018 (64-Bit) -->
<svg xmlns="http://www.w3.org/2000/svg" xml:space="preserve" width="59.2666mm" height="59.2666mm" version="1.1" style="shape-rendering:geometricPrecision; text-rendering:geometricPrecision; image-rendering:optimizeQuality; fill-rule:evenodd; clip-rule:evenodd"
viewBox="0 0 5926.66 5926.66"
 xmlns:xlink="http://www.w3.org/1999/xlink">
 <defs>
  <style type="text/css">
   <![CDATA[
    .str0 {stroke:#E1DAD4;stroke-width:50;stroke-miterlimit:22.9256}
    .fil4 {fill:none}
    .fil3 {fill:#615F5E;fill-opacity:0.749020}
    .fil2 {fill:url(#id1)}
    .fil0 {fill:url(#id2)}
    .fil1 {fill:url(#id3)}
   ]]>
  </style>
   <clipPath id="id0">
    <path d="M-0.11 -0.18l5926.67 0 0 5926.67 -5926.67 0 0 -5926.67z"/>
   </clipPath>
  <linearGradient id="id1" gradientUnits="userSpaceOnUse" x1="1372.27" y1="4170.09" x2="4554.19" y2="1756.23">
   <stop offset="0" style="stop-opacity:1; stop-color:#F5F5F6"/>
   <stop offset="1" style="stop-opacity:1; stop-color:#FEF8EB"/>
  </linearGradient>
  <linearGradient id="id2" gradientUnits="userSpaceOnUse" x1="602.37" y1="4754.16" x2="5324.09" y2="1172.16">
   <stop offset="0" style="stop-opacity:1; stop-color:#E1D7D2"/>
   <stop offset="0.521569" style="stop-opacity:1; stop-color:#FAF7F7"/>
   <stop offset="1" style="stop-opacity:1; stop-color:#FBF0EA"/>
  </linearGradient>
  <linearGradient id="id3" gradientUnits="userSpaceOnUse" x1="1012.1" y1="4443.32" x2="4914.36" y2="1483">
   <stop offset="0" style="stop-opacity:1; stop-color:#F5F5F6"/>
   <stop offset="1" style="stop-opacity:1; stop-color:#E4DDD2"/>
  </linearGradient>
 </defs>
 <g id="Слой_x0020_1">
  <metadata id="CorelCorpID_0Corel-Layer"/>
  <g>
  </g>
  <g style="clip-path:url(#id0)">
   <g>
    <g id="_1488051018528">
     <circle class="fil0" cx="2963.23" cy="2963.16" r="2963.34"/>
     <circle class="fil1" cx="2963.23" cy="2963.16" r="2449.03"/>
     <circle class="fil2 str0" cx="2963.23" cy="2963.16" r="1996.95"/>
     <g>
      <path class="fil3" d="M2832.49 2366.3c17.96,38.19 44.78,62.46 61.77,133.04 14.87,61.77 21.17,111.36 8.27,178.18 -34,176.14 -183.83,310.71 -362.33,322.34 -15.43,1.01 -36.47,3.55 -46.33,-6.43 -9.55,-9.68 -8.96,-25.7 1.01,-35.09 17.6,-16.59 149.65,9.29 270.94,-118.33 103.59,-109 129.03,-289.42 31.66,-431.99 -15.15,-22.19 -31.61,-37.16 -11.53,-64.93l162.75 -226.4c21.82,-25.78 56.78,-6.11 44.69,22.94 -9.39,22.56 -64.83,90.73 -81.77,115.42l-79.13 111.25zm-1207.13 -142.24l0 25.38 202.06 504.28c68.99,172.01 131.73,336.89 200.87,509.28l150.42 379.54c51.5,126.53 15.52,104.22 250.22,104.22l1243.56 -0.42c51.55,-4.8 56.24,-56.55 74.02,-100.84 117.87,-293.42 235.6,-605.6 352.44,-891.47l150.23 -379.58c13.05,-33.12 35.5,-101.66 51.91,-127.83l0 -22.66c-22.86,-33.94 -20.63,-35.9 -70.07,-43.37 -231.15,-34.95 -465.3,-21.02 -680.99,62.99 -20.9,8.13 -66.99,23.81 -81.3,34.12 -24.55,17.71 -25.53,57.22 -1.96,76.7 12.8,10.59 53.3,23.42 74.61,36.35 202.9,123.11 88.15,447.28 -154.92,407.92 -117.53,-19.03 -203.48,-132.47 -184.66,-253.97 22.06,-142.29 150.03,-147.44 104.48,-217.87 -49.74,-76.93 -172.84,-242.34 -232.19,-323.84 -34.26,-47.03 -68.61,-113.81 -106.9,-115.79 -45.59,-2.36 -71.52,57.06 -113.07,113.29 -47.12,63.77 -197.68,269.17 -233.64,326.4 -22.48,35.78 0.78,58.26 19.96,75.88 37.03,34.03 72.82,69.38 84.21,142.08 10.09,64.4 -11.21,129.81 -45.19,170.44 -142.2,170.01 -375.95,65.36 -396.32,-100.97 -12.25,-100.09 30.06,-181.06 107.44,-226.79 19.99,-11.82 61.09,-23.89 73.52,-37.21 23.73,-25.44 12.31,-62.13 -11.61,-75.97 -19.54,-11.32 -57.2,-23.51 -79.25,-32.19 -109.88,-43.31 -240.77,-67.43 -370.35,-77.54 -102.73,-8.01 -210.14,0.74 -310.87,16.55 -48.02,7.54 -45.4,11.24 -66.66,42.89z"/>
      <path class="fil3" d="M2191.28 3995.99c9.64,57.59 104.54,40.95 161.86,40.95l1231 0c57.39,0 149.42,15.66 145.28,-53.44 -3.81,-63.62 -104.39,-45.1 -162.38,-45.1l-1231 0c-56.78,0 -157.14,-16.3 -144.76,57.59z"/>
     </g>
    </g>
   </g>
  </g>
  <polygon class="fil4" points="-0.11,-0.18 5926.56,-0.18 5926.56,5926.49 -0.11,5926.49 "/>
 </g>
</svg>
