<?xml version="1.0" encoding="UTF-8"?>
<!DOCTYPE svg PUBLIC "-//W3C//DTD SVG 1.1//EN" "http://www.w3.org/Graphics/SVG/1.1/DTD/svg11.dtd">
<!-- Creator: CorelDRAW 2018 (64-Bit) -->
<svg xmlns="http://www.w3.org/2000/svg" xml:space="preserve" width="76.1998mm" height="76.1998mm" version="1.1" style="shape-rendering:geometricPrecision; text-rendering:geometricPrecision; image-rendering:optimizeQuality; fill-rule:evenodd; clip-rule:evenodd"
viewBox="0 0 7619.98 7619.98"
 xmlns:xlink="http://www.w3.org/1999/xlink">
 <defs>
  <style type="text/css">
   <![CDATA[
    .str0 {stroke:#BDB9B9;stroke-width:25.39;stroke-miterlimit:22.9256}
    .fil3 {fill:#A8A6A5}
    .fil2 {fill:#E3DFDF}
    .fil1 {fill:#F2F2F2}
    .fil0 {fill:url(#id6)}
   ]]>
  </style>
    <mask id="id0">
  <linearGradient id="id1" gradientUnits="userSpaceOnUse" x1="484.03" y1="5789.8" x2="3771.75" y2="3754.48">
   <stop offset="0" style="stop-opacity:1; stop-color:white"/>
   <stop offset="1" style="stop-opacity:0; stop-color:white"/>
  </linearGradient>
     <rect style="fill:url(#id1)" x="1031.92" y="1014.65" width="5479.67" height="5479.67"/>
    </mask>
    <mask id="id2">
  <linearGradient id="id3" gradientUnits="userSpaceOnUse" x1="7677.25" y1="1395.72" x2="3859.38" y2="3759.23">
   <stop offset="0" style="stop-opacity:1; stop-color:white"/>
   <stop offset="1" style="stop-opacity:0; stop-color:white"/>
  </linearGradient>
     <rect style="fill:url(#id3)" x="677.74" y="577.6" width="6363.27" height="6363.26"/>
    </mask>
    <mask id="id4">
  <linearGradient id="id5" gradientUnits="userSpaceOnUse" x1="-124.96" y1="6223.65" x2="3771.76" y2="3811.32">
   <stop offset="0" style="stop-opacity:1; stop-color:white"/>
   <stop offset="1" style="stop-opacity:0; stop-color:white"/>
  </linearGradient>
     <rect style="fill:url(#id5)" x="524.42" y="563.98" width="6494.68" height="6494.68"/>
    </mask>
  <linearGradient id="id6" gradientUnits="userSpaceOnUse" x1="4025.37" y1="542.88" x2="3562.71" y2="7020.35">
   <stop offset="0" style="stop-opacity:1; stop-color:#F0EFED"/>
   <stop offset="0.184314" style="stop-opacity:1; stop-color:#ECEAE7"/>
   <stop offset="0.478431" style="stop-opacity:1; stop-color:white"/>
   <stop offset="1" style="stop-opacity:1; stop-color:#E8E4E1"/>
  </linearGradient>
 </defs>
 <g id="Слой_x0020_1">
  <metadata id="CorelCorpID_0Corel-Layer"/>
  <g id="_1711139506064">
   <path class="fil0" d="M3794.04 534.64c1793.38,0 3246.98,1453.59 3246.98,3246.97 0,1793.38 -1453.6,3246.98 -3246.98,3246.98 -1793.38,0 -3246.98,-1453.6 -3246.98,-3246.98 0,-1793.38 1453.6,-3246.97 3246.98,-3246.97z"/>
   <path class="fil1" style="mask:url(#id0)" d="M3771.75 1014.65c1513.17,0 2739.84,1226.67 2739.84,2739.83 0,1513.17 -1226.67,2739.84 -2739.84,2739.84 -1513.16,0 -2739.83,-1226.67 -2739.83,-2739.84 0,-1513.16 1226.67,-2739.83 2739.83,-2739.83zm0 456.71c1260.98,0 2283.13,1022.15 2283.13,2283.12 0,1260.97 -1022.15,2283.13 -2283.13,2283.13 -1260.97,0 -2283.12,-1022.16 -2283.12,-2283.13 0,-1260.97 1022.15,-2283.12 2283.12,-2283.12z"/>
   <path class="fil1 str0" d="M3771.75 1485.9c1253.73,0 2269.98,1016.25 2269.98,2269.97 0,1253.73 -1016.25,2269.98 -2269.98,2269.98 -1253.72,0 -2269.97,-1016.25 -2269.97,-2269.98 0,-1253.72 1016.25,-2269.97 2269.97,-2269.97z"/>
   <path class="fil2" style="mask:url(#id2)" d="M3859.38 6940.86c-1757.17,0 -3181.64,-1424.47 -3181.64,-3181.63 0,-1757.16 1424.47,-3181.63 3181.64,-3181.63 1757.16,0 3181.63,1424.47 3181.63,3181.63 0,1757.16 -1424.47,3181.63 -3181.63,3181.63zm0 -530.35c-1464.31,0 -2651.28,-1186.98 -2651.28,-2651.28 0,-1464.3 1186.97,-2651.27 2651.28,-2651.27 1464.3,0 2651.27,1186.97 2651.27,2651.27 0,1464.3 -1186.97,2651.28 -2651.27,2651.28z"/>
   <path class="fil3" style="mask:url(#id4)" d="M3771.76 563.98c1793.45,0 3247.34,1453.89 3247.34,3247.34 0,1793.45 -1453.89,3247.34 -3247.34,3247.34 -1793.45,0 -3247.34,-1453.89 -3247.34,-3247.34 0,-1793.45 1453.89,-3247.34 3247.34,-3247.34zm0 541.31c1494.54,0 2706.03,1211.49 2706.03,2706.03 0,1494.54 -1211.49,2706.03 -2706.03,2706.03 -1494.55,0 -2706.03,-1211.49 -2706.03,-2706.03 0,-1494.54 1211.48,-2706.03 2706.03,-2706.03z"/>
  </g>
 </g>
</svg>
