<?xml version="1.0" encoding="UTF-8"?>
<!DOCTYPE svg PUBLIC "-//W3C//DTD SVG 1.1//EN" "http://www.w3.org/Graphics/SVG/1.1/DTD/svg11.dtd">
<!-- Creator: CorelDRAW 2018 (64-Bit) -->
<svg xmlns="http://www.w3.org/2000/svg" xml:space="preserve" width="59.2666mm" height="59.2666mm" version="1.1" style="shape-rendering:geometricPrecision; text-rendering:geometricPrecision; image-rendering:optimizeQuality; fill-rule:evenodd; clip-rule:evenodd"
viewBox="0 0 5926.66 5926.66"
 xmlns:xlink="http://www.w3.org/1999/xlink">
 <defs>
  <style type="text/css">
   <![CDATA[
    .str0 {stroke:#565656;stroke-width:25;stroke-miterlimit:22.9256;stroke-opacity:0.490196}
    .fil4 {fill:none}
    .fil3 {fill:#D9D5CE;fill-opacity:0.690196}
    .fil2 {fill:url(#id1);fill-opacity:0.490196}
    .fil0 {fill:url(#id2);fill-opacity:0.800000}
    .fil1 {fill:url(#id3);fill-opacity:0.800000}
   ]]>
  </style>
   <clipPath id="id0">
    <path d="M-0.11 -0.18l5926.67 0 0 5926.67 -5926.67 0 0 -5926.67z"/>
   </clipPath>
  <linearGradient id="id1" gradientUnits="userSpaceOnUse" x1="3800.07" y1="1150.01" x2="2126.39" y2="4776.31">
   <stop offset="0" style="stop-opacity:1; stop-color:#0D0D0D"/>
   <stop offset="1" style="stop-opacity:1; stop-color:#565552"/>
  </linearGradient>
  <linearGradient id="id2" gradientUnits="userSpaceOnUse" x1="602.37" y1="4754.16" x2="5324.09" y2="1172.16">
   <stop offset="0" style="stop-opacity:1; stop-color:#454039"/>
   <stop offset="0.521569" style="stop-opacity:1; stop-color:#96918B"/>
   <stop offset="1" style="stop-opacity:1; stop-color:#2B261E"/>
  </linearGradient>
  <linearGradient id="id3" gradientUnits="userSpaceOnUse" x1="1012.11" y1="4443.32" x2="4914.35" y2="1483">
   <stop offset="0" style="stop-opacity:1; stop-color:#65635E"/>
   <stop offset="1" style="stop-opacity:1; stop-color:#4A4946"/>
  </linearGradient>
 </defs>
 <g id="Слой_x0020_1">
  <metadata id="CorelCorpID_0Corel-Layer"/>
  <g>
  </g>
  <g style="clip-path:url(#id0)">
   <g>
    <g id="_1666368926880">
     <g>
      <path class="fil0" d="M2963.23 -0.18c1636.61,0 2963.34,1326.73 2963.34,2963.34 0,1636.61 -1326.73,2963.34 -2963.34,2963.34 -1636.61,0 -2963.34,-1326.73 -2963.34,-2963.34 0,-1636.61 1326.73,-2963.34 2963.34,-2963.34z"/>
      <path class="fil1" d="M2963.23 514.13c1352.57,0 2449.03,1096.46 2449.03,2449.03 0,1352.57 -1096.46,2449.03 -2449.03,2449.03 -1352.57,0 -2449.03,-1096.46 -2449.03,-2449.03 0,-1352.57 1096.46,-2449.03 2449.03,-2449.03z"/>
      <path class="fil2 str0" d="M2963.23 966.21c1102.89,0 1996.95,894.06 1996.95,1996.95 0,1102.89 -894.06,1996.95 -1996.95,1996.95 -1102.89,0 -1996.95,-894.06 -1996.95,-1996.95 0,-1102.89 894.06,-1996.95 1996.95,-1996.95z"/>
     </g>
     <g>
      <path class="fil3" d="M2832.25 2365.21c18,38.26 44.88,62.57 61.89,133.28 14.9,61.88 21.21,111.56 8.29,178.5 -34.06,176.46 -184.17,311.27 -362.99,322.93 -15.46,1 -36.54,3.55 -46.41,-6.45 -9.56,-9.7 -8.98,-25.74 1.01,-35.15 17.64,-16.62 149.92,9.31 271.42,-118.54 103.79,-109.2 129.27,-289.95 31.73,-432.78 -15.18,-22.23 -31.67,-37.22 -11.55,-65.05l163.03 -226.8c21.87,-25.83 56.9,-6.12 44.78,22.98 -9.41,22.6 -64.95,90.9 -81.92,115.63l-79.28 111.45zm-1209.3 -142.49l0 25.42 202.43 505.19c69.11,172.32 131.96,337.5 201.23,510.2l150.69 380.23c51.59,126.76 15.55,104.4 250.67,104.4l1245.81 -0.41c51.64,-4.81 56.34,-56.66 74.16,-101.03 118.07,-293.95 236.02,-606.7 353.07,-893.08l150.5 -380.26c13.08,-33.19 35.57,-101.85 52,-128.07l0 -22.69c-22.9,-34.01 -20.66,-35.97 -70.2,-43.46 -231.57,-35.01 -466.14,-21.05 -682.21,63.1 -20.94,8.16 -67.12,23.86 -81.45,34.19 -24.59,17.75 -25.58,57.33 -1.96,76.84 12.82,10.6 53.39,23.46 74.74,36.42 203.27,123.33 88.31,448.09 -155.2,408.65 -117.74,-19.06 -203.85,-132.71 -184.99,-254.43 22.09,-142.54 150.3,-147.7 104.67,-218.27 -49.84,-77.06 -173.15,-242.77 -232.61,-324.41 -34.32,-47.12 -68.74,-114.02 -107.09,-116 -45.68,-2.37 -71.66,57.16 -113.28,113.49 -47.21,63.89 -198.04,269.66 -234.06,326.98 -22.53,35.85 0.78,58.37 20,76.03 37.09,34.09 72.94,69.5 84.36,142.33 10.11,64.52 -11.24,130.04 -45.28,170.75 -142.46,170.32 -376.62,65.48 -397.03,-101.15 -12.28,-100.27 30.11,-181.39 107.63,-227.2 20.03,-11.84 61.2,-23.93 73.65,-37.28 23.78,-25.49 12.34,-62.24 -11.63,-76.11 -19.58,-11.33 -57.3,-23.55 -79.39,-32.25 -110.07,-43.38 -241.2,-67.55 -371.02,-77.67 -102.91,-8.03 -210.52,0.74 -311.43,16.58 -48.1,7.55 -45.49,11.26 -66.78,42.97z"/>
      <path class="fil3" d="M2189.89 3997.84c9.66,57.7 104.73,41.03 162.15,41.03l1233.23 0c57.49,0 149.68,15.69 145.54,-53.54 -3.82,-63.73 -104.58,-45.18 -162.67,-45.18l-1233.23 0c-56.88,0 -157.42,-16.33 -145.02,57.69z"/>
     </g>
    </g>
   </g>
  </g>
  <polygon class="fil4" points="-0.11,-0.18 5926.56,-0.18 5926.56,5926.49 -0.11,5926.49 "/>
 </g>
</svg>
